<svg xmlns="http://www.w3.org/2000/svg" width="156.615" height="190.379" viewBox="0 0 156.615 190.379">
  <g id="Logo_Gobierno" transform="translate(-40.174 -38.398)">
    <g id="Grupo_170" data-name="Grupo 170" transform="translate(40.174 189.219)">
      <g id="Grupo_168" data-name="Grupo 168">
        <path id="Trazado_726" data-name="Trazado 726" d="M54.695,177.462a16.62,16.62,0,0,1-6.607,1.551,7.6,7.6,0,0,1-7.914-7.761,8.213,8.213,0,0,1,8.6-8.329,20.9,20.9,0,0,1,4.905.838.869.869,0,0,0,.567-.172H54.6v3.992H54.1a4.7,4.7,0,0,0-5.053-4.042c-4.34,0-6.558,3.6-6.558,7.565,0,5.052,3.55,7.294,6.385,7.294a8.312,8.312,0,0,0,3.773-.936v-3.1c0-1.4-.494-1.874-1.973-1.874h-.912v-.443h6.657v.443c-1.233.074-1.726.493-1.726,1.553Z" transform="translate(-40.174 -162.923)" fill="#c5c8cf"/>
        <path id="Trazado_727" data-name="Trazado 727" d="M62.429,179.013c-4.831,0-8.9-3.1-8.9-7.712,0-4.9,3.772-8.379,9.023-8.379,4.659,0,8.654,3.179,8.654,7.615A8.483,8.483,0,0,1,62.429,179.013Zm-.517-15.474c-4.34,0-6.066,4.042-6.066,7,0,4.609,3.131,7.861,7.1,7.861,4.017,0,5.941-3.548,5.941-7.048C68.888,166.767,65.979,163.54,61.912,163.54Z" transform="translate(-37.354 -162.923)" fill="#c5c8cf"/>
        <path id="Trazado_728" data-name="Trazado 728" d="M70.56,165.879c0-1.4-.173-2.144-1.9-2.144H67.8v-.469c.69-.024,2.392-.122,3.107-.148,1.355-.048,3.229-.074,3.7-.074,2.169,0,4.068.321,4.955.962a3.128,3.128,0,0,1,1.5,2.735,3.235,3.235,0,0,1-2.81,3.006v.05c2.317.69,3.672,2.192,3.672,4.116,0,1.946-1.355,4.681-5.324,4.681H67.577v-.468h.567c2.021,0,2.416-.469,2.416-2.021Zm2.046,3.795h2.688c2.367,0,3.55-.936,3.55-2.858,0-1.725-1.036-3.3-4.068-3.3-.541,0-1.553.05-2.169.074Zm0,5.717c0,1.874.74,2.539,2.811,2.539,3.254,0,4.191-2.02,4.191-3.942,0-1.9-1.455-3.844-4.34-3.844H72.606Z" transform="translate(-34.387 -162.897)" fill="#c5c8cf"/>
        <path id="Trazado_729" data-name="Trazado 729" d="M85.782,178.555h-5.99v-.468c1.528-.074,1.848-.469,1.848-2.12v-10.5c0-1.331-.468-1.7-1.848-1.774v-.469h5.99v.469c-1.553,0-2.1.345-2.1,2v10.449c0,1.452.394,1.946,2.1,1.946Z" transform="translate(-31.808 -162.859)" fill="#c5c8cf"/>
        <path id="Trazado_730" data-name="Trazado 730" d="M96.626,173.011h-.468c-.2-1.749-.666-1.946-1.676-1.946H90.316v5.249c0,1.134.419,1.355,1.331,1.355h3.8c1.726,0,2.244-.665,2.861-2.786h.443l-.395,3.672H85.262v-.468h.69c1.972,0,2.317-.543,2.317-2.021v-10.4c0-1.381-.321-1.972-1.972-1.972h-.543v-.469H97.588l.2,3.426h-.443c-.321-2.1-.937-2.539-1.824-2.539h-5.2v6.062h4.412c.888,0,1.307-.419,1.43-1.848h.468Z" transform="translate(-30.653 -162.859)" fill="#c5c8cf"/>
        <path id="Trazado_731" data-name="Trazado 731" d="M100.49,176.277c0,1.48.591,1.849,1.972,1.849h.567v.468H96.052v-.468h.419c1.455,0,1.972-.395,1.972-2.046V165.707c0-1.528-.419-1.972-1.848-1.972h-.543v-.469c.591,0,2.1-.1,3.107-.148s1.5-.074,3.105-.074c4.561,0,6.607,1.874,6.607,4.387a4.208,4.208,0,0,1-3.279,3.992,29.392,29.392,0,0,1,2.81,2.563l1.949,1.946a7.416,7.416,0,0,0,4.857,2.489v.443c-4.315.2-5.424-.739-7.618-2.932l-1.627-1.627a18.187,18.187,0,0,0-2.54-2.192c-.616.024-1.011.048-1.676.048-.543,0-.864-.024-1.257-.048Zm0-4.632a10.679,10.679,0,0,0,1.528.048c2.736,0,4.536-1.157,4.536-4.114,0-2.292-1.036-4.066-4.833-4.066a10.021,10.021,0,0,0-1.232.05Z" transform="translate(-28.374 -162.897)" fill="#c5c8cf"/>
        <path id="Trazado_732" data-name="Trazado 732" d="M126.113,178.935,113.342,165.58v10.571c0,1.774.394,2.144,2.489,2.144v.469h-5.719v-.469h.1c1.529,0,2.021-.517,2.021-1.651V164.52a3.623,3.623,0,0,0-2.071-.616v-.468h3.871l11.612,12.1v-9.807c0-1.5-.445-1.774-2.416-1.824v-.468H129v.468c-1.848,0-2.243.321-2.243,1.281v13.75Z" transform="translate(-25.405 -162.815)" fill="#c5c8cf"/>
        <path id="Trazado_733" data-name="Trazado 733" d="M134.13,179.013c-4.831,0-8.9-3.1-8.9-7.712,0-4.9,3.773-8.379,9.023-8.379,4.659,0,8.654,3.179,8.654,7.615A8.483,8.483,0,0,1,134.13,179.013Zm-.517-15.474c-4.34,0-6.064,4.042-6.064,7,0,4.609,3.131,7.861,7.1,7.861,4.019,0,5.941-3.548,5.941-7.048C140.589,166.767,137.681,163.54,133.613,163.54Z" transform="translate(-22.213 -162.923)" fill="#c5c8cf"/>
        <path id="Trazado_734" data-name="Trazado 734" d="M147.116,165.731c0-1.6-.419-2-1.872-2h-.494v-.469c.912-.048,2.121-.1,3.476-.148s2.861-.074,4.142-.074c6.509,0,9.393,3.3,9.393,7.368,0,3.722-2.884,8.181-9.121,8.181h-7.89v-.468h.419c1.331,0,1.948-.369,1.948-1.8Zm2.047,11.04c0,1.01.074,1.355,2.021,1.355,3.3,0,4.684-.469,6.212-2a7.6,7.6,0,0,0,2.047-5.323,7.415,7.415,0,0,0-1.972-5.3c-1.135-1.134-2.885-2-6.337-2-1.01,0-1.676.074-1.972.1Z" transform="translate(-18.091 -162.897)" fill="#c5c8cf"/>
        <path id="Trazado_735" data-name="Trazado 735" d="M169.715,173.011h-.469c-.2-1.749-.666-1.946-1.676-1.946H163.4v5.249c0,1.134.419,1.355,1.331,1.355h3.8c1.725,0,2.243-.665,2.86-2.786h.443l-.395,3.672h-13.09v-.468h.69c1.972,0,2.317-.543,2.317-2.021v-10.4c0-1.381-.32-1.972-1.972-1.972h-.543v-.469h11.834l.2,3.426h-.443c-.321-2.1-.937-2.539-1.824-2.539h-5.2v6.062h4.412c.888,0,1.307-.419,1.43-1.848h.469Z" transform="translate(-15.219 -162.859)" fill="#c5c8cf"/>
      </g>
      <g id="Grupo_169" data-name="Grupo 169" transform="translate(0.082 23.23)">
        <path id="Trazado_736" data-name="Trazado 736" d="M51.775,192.34H51.3c-.2-1.776-.676-1.975-1.7-1.975H45.37v5.326c0,1.151.426,1.376,1.352,1.376h3.853c1.751,0,2.276-.676,2.9-2.827h.449l-.4,3.727H40.242v-.476h.7c2,0,2.352-.55,2.352-2.049V184.889c0-1.4-.325-2-2-2h-.551v-.475H52.75l.2,3.476H52.5c-.326-2.127-.951-2.576-1.852-2.576H45.37v6.15h4.478c.9,0,1.326-.424,1.452-1.875h.475Z" transform="translate(-40.242 -182.038)" fill="#c5c8cf"/>
        <path id="Trazado_737" data-name="Trazado 737" d="M63.427,197.966H52.244v-.476h.826c1.151,0,1.576-.374,1.576-1.65V184.763c0-1.325-.4-1.875-1.977-1.875h-.35v-.475H59.7v.475h-.925c-1.625,0-2.052.176-2.052,1.726V196.14c0,.675.276.925,1,.925H61.4c1.476,0,1.926-.575,3.5-2.751h.449Z" transform="translate(-37.708 -182.038)" fill="#c5c8cf"/>
        <path id="Trazado_738" data-name="Trazado 738" d="M69.122,194.23a4.338,4.338,0,0,0,4.228,3.525c1.676,0,3.452-.974,3.452-2.949,0-3.6-8.03-4.7-8.03-9.077,0-2.076,1.9-3.626,4.453-3.626,2.1,0,2.527.625,3.4.625a.48.48,0,0,0,.451-.25h.4l.425,3.176h-.425a4.417,4.417,0,0,0-4.028-2.95c-1.651,0-2.8.95-2.8,2.35,0,3.55,8.031,4.5,8.031,9.1,0,2.45-2.176,4.275-5.1,4.275a20.439,20.439,0,0,1-3.477-.676.6.6,0,0,0-.5.276h-.425l-.526-3.8Z" transform="translate(-34.244 -182.103)" fill="#c5c8cf"/>
        <path id="Trazado_739" data-name="Trazado 739" d="M82.627,191.13l-1.451,3.925a7.009,7.009,0,0,0-.5,1.576c0,.675.65.924,2.026.924h.4v.476h-5.78v-.476c1.627-.024,1.9-.3,2.7-2.474l4.553-12.428-.225-.55h2.176l5.229,13.878a1.967,1.967,0,0,0,2.277,1.575v.476H87.154v-.476h.65c1.427,0,1.951-.149,1.951-.849a2.789,2.789,0,0,0-.274-1.026L87.8,191.13Zm2.552-6.927-2.127,5.826h4.328Z" transform="translate(-32.412 -182.103)" fill="#c5c8cf"/>
        <path id="Trazado_740" data-name="Trazado 740" d="M102.2,197.966H91.02v-.476h.825c1.151,0,1.577-.374,1.577-1.65V184.763c0-1.325-.4-1.875-1.977-1.875H91.1v-.475h7.38v.475h-.925c-1.627,0-2.052.176-2.052,1.726V196.14c0,.675.275.925,1,.925h3.677c1.476,0,1.927-.575,3.5-2.751h.451Z" transform="translate(-29.519 -182.038)" fill="#c5c8cf"/>
        <path id="Trazado_741" data-name="Trazado 741" d="M106.313,198.365l-5.428-13.528c-.626-1.575-.927-1.95-2.453-1.95v-.475h6.879v.475c-2.3.05-2.851.575-2.376,1.726l4.5,11.2,3.953-10.326a4.843,4.843,0,0,0,.425-1.55c0-.75-.625-1.05-2.327-1.05v-.475h5.8v.475c-1.3,0-1.977.6-2.577,2.15l-5.154,13.328Z" transform="translate(-27.954 -182.038)" fill="#c5c8cf"/>
        <path id="Trazado_742" data-name="Trazado 742" d="M115.264,191.13l-1.452,3.925a7.062,7.062,0,0,0-.5,1.576c0,.675.65.924,2.026.924h.4v.476H109.96v-.476c1.625-.024,1.9-.3,2.7-2.474l4.554-12.428-.225-.55h2.176l5.229,13.878a1.966,1.966,0,0,0,2.276,1.575v.476h-6.879v-.476h.65c1.427,0,1.951-.149,1.951-.849a2.764,2.764,0,0,0-.275-1.026l-1.676-4.55Zm2.551-6.927-2.126,5.826h4.328Z" transform="translate(-25.52 -182.103)" fill="#c5c8cf"/>
        <path id="Trazado_743" data-name="Trazado 743" d="M125.954,184.952c0-1.625-.425-2.025-1.9-2.025h-.5v-.475c.925-.051,2.151-.1,3.527-.15s2.9-.075,4.2-.075c6.6,0,9.531,3.35,9.531,7.475,0,3.776-2.927,8.3-9.256,8.3h-8v-.476h.425c1.35,0,1.975-.374,1.975-1.825Zm2.077,11.2c0,1.025.075,1.375,2.052,1.375,3.351,0,4.753-.475,6.3-2.025a7.718,7.718,0,0,0,2.076-5.4,7.526,7.526,0,0,0-2-5.376c-1.151-1.149-2.927-2.025-6.429-2.025-1.026,0-1.7.075-2,.1Z" transform="translate(-22.649 -182.077)" fill="#c5c8cf"/>
        <path id="Trazado_744" data-name="Trazado 744" d="M147.749,198.431c-4.9,0-9.031-3.15-9.031-7.827,0-4.975,3.827-8.5,9.156-8.5,4.727,0,8.781,3.225,8.781,7.726A8.609,8.609,0,0,1,147.749,198.431Zm-.524-15.7c-4.4,0-6.154,4.1-6.154,7.1,0,4.676,3.177,7.977,7.2,7.977,4.078,0,6.029-3.6,6.029-7.152C154.3,186,151.352,182.728,147.224,182.728Z" transform="translate(-19.447 -182.103)" fill="#c5c8cf"/>
        <path id="Trazado_745" data-name="Trazado 745" d="M157.869,195.654c0,1.5.6,1.875,2,1.875h.575V198h-7.079v-.476h.425c1.476,0,2-.4,2-2.075V184.928c0-1.55-.426-2-1.876-2h-.551v-.475c.6,0,2.127-.1,3.153-.15s1.526-.075,3.151-.075c4.628,0,6.705,1.9,6.705,4.451a4.268,4.268,0,0,1-3.328,4.05,29.9,29.9,0,0,1,2.852,2.6l1.977,1.975a7.528,7.528,0,0,0,4.928,2.527v.449c-4.378.2-5.5-.751-7.731-2.976l-1.651-1.65a18.393,18.393,0,0,0-2.576-2.226c-.625.025-1.026.05-1.7.05-.55,0-.874-.024-1.275-.05Zm0-4.7a10.832,10.832,0,0,0,1.552.05c2.776,0,4.6-1.175,4.6-4.175,0-2.325-1.05-4.126-4.9-4.126a10.085,10.085,0,0,0-1.251.051Z" transform="translate(-16.353 -182.077)" fill="#c5c8cf"/>
      </g>
    </g>
    <path id="Trazado_746" data-name="Trazado 746" d="M105.937,38.4l1.838,3.722,4.109.6-2.973,2.9.7,4.091-3.675-1.931L102.261,49.7l.7-4.091-2.973-2.9,4.109-.6Z" transform="translate(12.631)" fill="#c5c8cf"/>
    <path id="Trazado_747" data-name="Trazado 747" d="M128.24,44.091l1.838,3.722,4.109.6-2.973,2.9.7,4.091-3.675-1.931L124.564,55.4l.7-4.091-2.973-2.9,4.109-.6Z" transform="translate(17.341 1.202)" fill="#c5c8cf"/>
    <path id="Trazado_748" data-name="Trazado 748" d="M145.342,57.933l1.838,3.722,4.109.6-2.973,2.9.7,4.091-3.675-1.931-3.675,1.931.7-4.091-2.973-2.9,4.109-.6Z" transform="translate(20.953 4.125)" fill="#c5c8cf"/>
    <path id="Trazado_749" data-name="Trazado 749" d="M155.111,77.75l1.838,3.722,4.109.6-2.973,2.9.7,4.091-3.675-1.931-3.675,1.931.7-4.091-2.973-2.9,4.109-.6Z" transform="translate(23.016 8.31)" fill="#c5c8cf"/>
    <path id="Trazado_750" data-name="Trazado 750" d="M155.486,100.75l1.838,3.722,4.109.6-2.973,2.9.7,4.091-3.675-1.931-3.675,1.931.7-4.091-2.973-2.9,4.109-.6Z" transform="translate(23.095 13.167)" fill="#c5c8cf"/>
    <path id="Trazado_751" data-name="Trazado 751" d="M145.362,120.66l1.838,3.722,4.109.6-2.973,2.9.7,4.091-3.675-1.931-3.675,1.931.7-4.091-2.973-2.9,4.109-.6Z" transform="translate(20.957 17.371)" fill="#c5c8cf"/>
    <path id="Trazado_752" data-name="Trazado 752" d="M128.347,134.513l1.838,3.722,4.109.6-2.973,2.9.7,4.091-3.675-1.931-3.675,1.931.7-4.091-2.973-2.9,4.109-.6Z" transform="translate(17.364 20.297)" fill="#c5c8cf"/>
    <path id="Trazado_753" data-name="Trazado 753" d="M105.928,139.376l1.838,3.722,4.109.6-2.973,2.9.7,4.091-3.675-1.931-3.675,1.931.7-4.091-2.973-2.9,4.109-.6Z" transform="translate(12.63 21.324)" fill="#c5c8cf"/>
    <path id="Trazado_754" data-name="Trazado 754" d="M84.005,134.526l1.838,3.722,4.109.6-2.973,2.9.7,4.091L84.005,143.9l-3.675,1.931.7-4.091-2.973-2.9,4.109-.6Z" transform="translate(8 20.3)" fill="#c5c8cf"/>
    <path id="Trazado_755" data-name="Trazado 755" d="M66.982,120.684l1.838,3.722,4.109.6-2.973,2.9.7,4.091-3.675-1.931-3.675,1.931.7-4.091L61.035,125l4.109-.6Z" transform="translate(4.405 17.377)" fill="#c5c8cf"/>
    <path id="Trazado_756" data-name="Trazado 756" d="M56.845,100.9l1.838,3.722,4.109.6-2.973,2.9.7,4.091-3.675-1.931L53.169,112.2l.7-4.091-2.973-2.9,4.109-.6Z" transform="translate(2.265 13.198)" fill="#c5c8cf"/>
    <path id="Trazado_757" data-name="Trazado 757" d="M56.845,77.75l1.838,3.722,4.109.6-2.973,2.9.7,4.091-3.675-1.931-3.675,1.931.7-4.091-2.973-2.9,4.109-.6Z" transform="translate(2.265 8.31)" fill="#c5c8cf"/>
    <path id="Trazado_758" data-name="Trazado 758" d="M66.467,57.957,68.3,61.679l4.109.6-2.973,2.9.7,4.091-3.675-1.931-3.675,1.931.7-4.091-2.973-2.9,4.109-.6Z" transform="translate(4.297 4.13)" fill="#c5c8cf"/>
    <path id="Trazado_759" data-name="Trazado 759" d="M83.977,44.1l1.838,3.722,4.109.6-2.973,2.9.7,4.091-3.675-1.931L80.3,55.411,81,51.32l-2.973-2.9,4.109-.6Z" transform="translate(7.994 1.205)" fill="#c5c8cf"/>
    <g id="Grupo_171" data-name="Grupo 171" transform="translate(81.229 65.586)">
      <path id="Trazado_760" data-name="Trazado 760" d="M131,101.534a.516.516,0,0,0-.059-.012.51.51,0,1,0,0,1.02.513.513,0,0,0,.059-.012.463.463,0,0,0,.062.012.51.51,0,1,0,0-1.02A.466.466,0,0,0,131,101.534Z" transform="translate(-62.168 -52.256)" fill="#c5c8cf"/>
      <path id="Trazado_761" data-name="Trazado 761" d="M148.57,102.969a3.488,3.488,0,0,0-1.243.465,1.852,1.852,0,0,1-.718.3,1.86,1.86,0,0,0,.184-.981c-.088-.933-.088-2.462-.088-2.462s-.311.931-.755,1.153c-.465.222-1.308.533-1.464.844s-.776.31-1.02,1.241a3.489,3.489,0,0,1-.377,1.152,3.089,3.089,0,0,1-.195.315,21.084,21.084,0,0,0,.509-4.084c0-.217-.007-.423-.01-.635a6.045,6.045,0,0,0,.534-.514c.2-.323,2.576-1.138,2.908-1.78.333-.621.51-1.065.666-1.331a4.621,4.621,0,0,0,.377-1.728,14.667,14.667,0,0,0-.266-2.373,3.2,3.2,0,0,0-.976.753,1.185,1.185,0,0,1-.264.27,1.847,1.847,0,0,0-.111-.666c-.333-.82-.843-1.906-.843-1.906s-.443.688-.688,1.108c-.4.8-.8.865-.866,1.176-.044.332-.532.532-.709,1.175a5.137,5.137,0,0,0-.122.514c-.176-1.372-.4-2.62-.661-3.744.114-.361.243-1.146.563-1.4a1.847,1.847,0,0,0,.532-1.553,6.063,6.063,0,0,0-.22-1.462c-.068-.378-1.243-2-1.154-2.461,0,0-.578,1.309-.8,1.823a9.579,9.579,0,0,0-1.951-1.49q-.436-.759-.9-1.524c.015-.15.047-.468.1-.808a3.693,3.693,0,0,0,.088-1.618c-.155-.377-.466-.688-.62-1.153a2.281,2.281,0,0,0-.623-1.153c-.377-.4-.931-.931-.931-.931s-.151.686-.293,1.241a2.046,2.046,0,0,0-.394-.154c-.091-.036-.287-.137-.5-.253-.266-.363-.527-.707-.77-1.011a.492.492,0,0,0,.23-.419.526.526,0,1,0-.234.421c.069.109.273.425.572.9-.249-.136-.491-.275-.6-.346-.2-.133-.309,1.389.153,2.232-.074-.019-.148-.04-.218-.057a5.5,5.5,0,0,0-1.773-.155c.222,0,.776.6.842.908a2.633,2.633,0,0,0,.933,1.153,5.593,5.593,0,0,1,1.153.865,3.6,3.6,0,0,0,1.955.378,1.141,1.141,0,0,0,.679.168c.286.493.572.993.85,1.493a5.122,5.122,0,0,0-.18,1.327v0h0c-.378-.067-1.687-.377-1.687-.377a4.574,4.574,0,0,0,.673,1.932.481.481,0,0,0-.145.262.635.635,0,0,0,.109.466,1.627,1.627,0,0,0,.73.607l-6.34,4.46a87.567,87.567,0,0,0-.621-16.347c.769-.291.561-.637.561-.637l-.3-.751a.611.611,0,0,0,.247.059.483.483,0,0,0,.362-.151.559.559,0,0,0-.085-.775,1.64,1.64,0,0,0-.489-.349l.9-.132.518-2.185h0l-2.127.721-.046.912a1.608,1.608,0,0,0-.384-.446.521.521,0,1,0-.7.759,1.7,1.7,0,0,0,.784.412.261.261,0,0,0,.029.058L120.214,86.4l-7.061-11.8c.435-2.86-1.1-7.2-1.162-7.375a4.289,4.289,0,0,0,.124-1.175,1.006,1.006,0,0,0,.67-.667l.01-.013v-.018l0-.015a11.194,11.194,0,0,0-.815-.911,2.034,2.034,0,0,0,.383.047h.048a.563.563,0,0,0,.595-.518.557.557,0,0,0-.583-.515h0a1.644,1.644,0,0,0-.6.071l.579-.706-1.089-1.965v0l-1.085,1.967.583.706a1.635,1.635,0,0,0-.586-.071.639.639,0,0,0-.451.178.482.482,0,0,0-.144.339.473.473,0,0,0,.145.338.632.632,0,0,0,.443.177h.05a2.215,2.215,0,0,0,.31-.033c-.18.168-.411.428-.57.614a.716.716,0,0,0-.153.18l-.038.045a.8.8,0,0,0,.023.076c0,.016,0,.033,0,.048a1.023,1.023,0,0,0,.325.39c-.81,1.5-2.8,5.858-1.65,10.4l-6.1,10.208L91.745,74.641a1.64,1.64,0,0,0,.849-.42.64.64,0,0,0,.213-.435.468.468,0,0,0-.455-.5.663.663,0,0,0-.445.164,1.607,1.607,0,0,0-.392.454l-.046-.913-2.127-.721h0l.518,2.185.906.132a1.6,1.6,0,0,0-.482.34.641.641,0,0,0-.214.435.485.485,0,0,0,.121.349.479.479,0,0,0,.335.153h.025a.621.621,0,0,0,.248-.058l-.3.749s-.207.346.562.637a87.345,87.345,0,0,0-.621,16.347L84.1,89.078a1.609,1.609,0,0,0,.728-.6.646.646,0,0,0,.119-.42.482.482,0,0,0-.145-.3,4.5,4.5,0,0,0,.681-1.942s-1.308.31-1.686.377h0v0a5.121,5.121,0,0,0-.18-1.327c.279-.5.564-1,.85-1.493a1.141,1.141,0,0,0,.679-.168,3.6,3.6,0,0,0,1.955-.378,5.593,5.593,0,0,1,1.153-.865,2.622,2.622,0,0,0,.931-1.153c.067-.31.621-.908.843-.908a5.5,5.5,0,0,0-1.774.155c-.069.017-.144.038-.217.057.461-.843.351-2.365.151-2.232-.113.071-.355.211-.6.346.3-.474.5-.79.572-.9a.509.509,0,0,0,.276.088.51.51,0,1,0-.511-.51.5.5,0,0,0,.231.419c-.243.3-.5.648-.77,1.011-.216.116-.412.217-.5.253a2.046,2.046,0,0,0-.394.154c-.142-.556-.294-1.241-.294-1.241s-.554.533-.93.931a2.281,2.281,0,0,0-.623,1.153c-.155.465-.465.776-.62,1.153a3.693,3.693,0,0,0,.088,1.618c.048.34.081.658.1.808q-.46.763-.9,1.524a9.579,9.579,0,0,0-1.951,1.49c-.22-.514-.8-1.823-.8-1.823.088.465-1.088,2.083-1.154,2.461a6.064,6.064,0,0,0-.22,1.462,1.847,1.847,0,0,0,.532,1.553c.32.259.449,1.044.563,1.4-.258,1.124-.486,2.371-.661,3.744a5.139,5.139,0,0,0-.122-.514c-.177-.643-.665-.843-.71-1.175-.067-.311-.465-.377-.865-1.176C77.673,91.688,77.23,91,77.23,91s-.511,1.086-.843,1.906a1.847,1.847,0,0,0-.111.666,1.185,1.185,0,0,1-.264-.27,3.213,3.213,0,0,0-.976-.753,14.669,14.669,0,0,0-.266,2.373,4.62,4.62,0,0,0,.377,1.728c.156.266.333.71.666,1.331.332.642,2.709,1.457,2.907,1.78a6.132,6.132,0,0,0,.535.514c0,.212-.01.418-.01.635a21.083,21.083,0,0,0,.509,4.084,2.889,2.889,0,0,1-.2-.315,3.49,3.49,0,0,1-.377-1.152c-.243-.931-.866-.931-1.021-1.241s-1-.623-1.463-.844c-.443-.222-.755-1.153-.755-1.153s0,1.53-.088,2.462a1.872,1.872,0,0,0,.183.981,1.854,1.854,0,0,1-.717-.3,3.488,3.488,0,0,0-1.243-.465,19.938,19.938,0,0,0,.465,2.461,4.579,4.579,0,0,0,.933,1.618c.222.243.533.621,1.065,1.153.554.555,1.946.665,3.483,1.175a2.042,2.042,0,0,1,1.083.816c.056.2.1.371.136.5.172.672.4,1.492.666,2.376a2.918,2.918,0,0,0-2.038-.848c-.533-.088-2.617-.621-2.617-.621a5.345,5.345,0,0,1,1.112,2.308,6.94,6.94,0,0,0-2.421,0A7.806,7.806,0,0,1,78,116.23a8.311,8.311,0,0,0,1.309,2.306c.243.155.931,1,1.4,1.463s2.306.222,2.927.222a5.762,5.762,0,0,1,1.411.451,15.108,15.108,0,0,0,1.956,2.04,5.255,5.255,0,0,1-1.7-1.114c-.3-.409.044,1.365.389,1.939a2.788,2.788,0,0,1-1.344-.386c-.51-.4-.067,1.4.488,1.906,1.194,1.063,1.084,1.232,1.274,1.3-1.005.2-2.4.544-2.829.292-.555-.311.621.775,1.331,1.042,1.02.377.888,1.043,2,1.4a8.63,8.63,0,0,0,3.107.711,10.265,10.265,0,0,1,1.685-.423c.672-.081,1.814-.976,3.113-1.14a42.573,42.573,0,0,0,3.763,2.072c.054.027.126.059.2.092a3.722,3.722,0,0,0-.438.062,8.249,8.249,0,0,1-2.84.31c-.421-.22.481,1.023,1.051,1.492a9.178,9.178,0,0,1-2.6.194c-.621-.133,1.243,1.663,1.974,1.862l.086.024a5.043,5.043,0,0,1-1.415.323c-.643-.045,2.041,1.707,2.774,1.6,2.351-.332,4.57.466,5.656.023.976-.378,1.553-.643,2.041-.8.488-.178.755-.621,1.065-.843a3.181,3.181,0,0,1,1.122-.91.31.31,0,0,0,.132.027,21.174,21.174,0,0,0,2.478,0,3.945,3.945,0,0,0-1.013.608,26.3,26.3,0,0,0-2.5.862,23.42,23.42,0,0,0-3.928,3.237s2-.155,2.307-.155,1-1.376,1.308-1.619c.09-.063.6-.323,1.343-.671a3.2,3.2,0,0,0,.623,3.99c-.532-.62.067-1.707.067-1.707l1.088.687c-1.365-2.335.746-3.894,1.446-4.329.073-.028.145-.056.219-.082a1.1,1.1,0,0,0,.861.468,1.083,1.083,0,0,0,.832-.436c.14.052.279.107.417.16.814.55,2.546,2.051,1.279,4.22l1.086-.687s.6,1.086.067,1.707a3.2,3.2,0,0,0,.671-3.913c.655.309,1.1.537,1.18.595.31.243,1,1.619,1.308,1.619s2.307.155,2.307.155a23.42,23.42,0,0,0-3.928-3.237,24.1,24.1,0,0,0-2.316-.805,4.014,4.014,0,0,0-1.079-.665,21.174,21.174,0,0,0,2.478,0,.132.132,0,0,0,.046-.007,3.754,3.754,0,0,1,1.092.89c.31.222.577.665,1.065.843.487.155,1.065.42,2.041.8,1.086.443,3.305-.355,5.656-.023.732.111,3.417-1.64,2.774-1.6a5.043,5.043,0,0,1-1.415-.323l.086-.024c.732-.2,2.6-1.995,1.974-1.862a9.178,9.178,0,0,1-2.6-.194c.57-.469,1.473-1.713,1.051-1.492a8.246,8.246,0,0,1-2.84-.31,3.722,3.722,0,0,0-.438-.062c.073-.033.144-.065.2-.092a42.422,42.422,0,0,0,3.764-2.072c1.3.164,2.441,1.059,3.113,1.14a10.264,10.264,0,0,1,1.685.423,8.63,8.63,0,0,0,3.107-.711c1.108-.354.976-1.02,2-1.4.71-.266,1.886-1.353,1.331-1.042-.425.252-1.824-.09-2.831-.292.191-.073.081-.241,1.275-1.3.555-.51,1-2.306.488-1.906a2.792,2.792,0,0,1-1.344.386c.345-.574.689-2.348.389-1.939a5.247,5.247,0,0,1-1.7,1.114,15.055,15.055,0,0,0,1.957-2.04,5.745,5.745,0,0,1,1.411-.451c.621,0,2.462.245,2.927-.222s1.154-1.308,1.4-1.463a8.343,8.343,0,0,0,1.309-2.306,7.806,7.806,0,0,1,2.063-2.328,6.94,6.94,0,0,0-2.421,0A5.332,5.332,0,0,1,145.4,111.6s-2.084.533-2.617.621a2.918,2.918,0,0,0-2.038.848c.266-.884.493-1.7.666-2.376.031-.126.08-.3.136-.5a2.042,2.042,0,0,1,1.083-.816c1.537-.51,2.929-.62,3.483-1.175.532-.532.843-.91,1.065-1.153a4.577,4.577,0,0,0,.931-1.618A19.729,19.729,0,0,0,148.57,102.969Zm-5.544-1.482a21.564,21.564,0,0,1-.478,3.139,3.254,3.254,0,0,0-.35-1.254c-.222-.465-.532-.465-.687-.933s-.688-.62-1-1a6.758,6.758,0,0,0-.933-.843,8.417,8.417,0,0,0-.155,2.926,1.847,1.847,0,0,1,.113.461c-.228-.087-.426-.154-.426-.154-.4.908.067,1.839.223,2.682a6.07,6.07,0,0,0,.532,1.088c.155.31.09.6.243.843.145.2.482.233.831.553a4.405,4.405,0,0,0,.187,1.208c-.3.992-.623,2-.973,3.01a2.324,2.324,0,0,0-.371-1.066,3.839,3.839,0,0,1-.687-1.243c-.311-.843-.933-.843-1.021-1.685a15.881,15.881,0,0,0-.288,1.84,4.639,4.639,0,0,0,.133,1.618,2.786,2.786,0,0,1-.138,1.034,3.067,3.067,0,0,0-.305-1.343,1.5,1.5,0,0,1-.156-.931,8.454,8.454,0,0,1-1.185,1.567l-.288-.481c4.047-7.076,3.1-19.183,2.95-20.842.654-.138.54-.475.54-.475l-.127-.792a.606.606,0,0,0,.2.1.526.526,0,0,0,.142.019.458.458,0,0,0,.268-.084.479.479,0,0,0,.2-.363.2.2,0,0,0,0-.027,2.364,2.364,0,0,0,.826.667c.555.155,1.02.4,1.086.62v0a36.609,36.609,0,0,1,.782,4.4l-.006-.007c-.62-.688-.776-2-2.151-2.706a4.029,4.029,0,0,1,0,.931,5.581,5.581,0,0,0-.13,1.21,3.871,3.871,0,0,1-1.055-1.036,6.446,6.446,0,0,0,.311,2.927c.555,1,.555,1.53,1.153,1.751a2.859,2.859,0,0,1,.931.554,2.019,2.019,0,0,0,.933.378.281.281,0,0,1,.2.12,4.288,4.288,0,0,0,.124.468C143.036,100.754,143.035,101.139,143.027,101.487ZM89.254,93.148l4.1,2.887a13.8,13.8,0,0,0,.584,4.542l-3.407,5.7C89.97,105.051,88.536,101.059,89.254,93.148ZM82.93,89.8a1.141,1.141,0,0,1,.71-.535,1.275,1.275,0,0,1-.268.86.4.4,0,0,1-.219.16.238.238,0,0,1-.207-.029.245.245,0,0,1-.1-.184A.414.414,0,0,1,82.93,89.8ZM96.4,80.307l3.264,3.6c-.07.992-.207,4.086.646,6.033L97.335,94.9C96.628,93.462,95.159,89.21,96.4,80.307Zm12.729-2.325a12.873,12.873,0,0,1,4.369-.011l.465.778a12.137,12.137,0,0,0-5.3.021Zm.372-.621,1.816-3.035,1.808,3.022A13.447,13.447,0,0,0,109.5,77.36Zm-1.248,2.086a11.549,11.549,0,0,1,6.114-.022l.5.837a10.78,10.78,0,0,0-7.12.03ZM107.26,81.1a10.238,10.238,0,0,1,8.086-.041l12.544,20.959h-4.6a5.623,5.623,0,0,1-.606-.426,2.1,2.1,0,0,0-.214-.16,1.365,1.365,0,0,0-1.027-.2,2.035,2.035,0,0,0-.539.194,3.266,3.266,0,0,0-.484.311.137.137,0,0,1-.053.035,2.012,2.012,0,0,1-.23-.1,5.547,5.547,0,0,1-1.13-.734,2.1,2.1,0,0,0-.363-.246,1.481,1.481,0,0,0-.686-.167,1.717,1.717,0,0,0-.488.075,2.559,2.559,0,0,0-.639.3,4.1,4.1,0,0,0-.385.274c-.015.012-.027.028-.05.029l-.028-.016a4.162,4.162,0,0,0-.736-.373,4.184,4.184,0,0,1-.664-.34,6.771,6.771,0,0,1-.857-.613,2.094,2.094,0,0,0-.308-.216,1.728,1.728,0,0,0-.733-.231,1.8,1.8,0,0,0-.528.036,2.643,2.643,0,0,0-.671.247,3.624,3.624,0,0,0-.329.212V92.653c.769-.047,1.359-.314,1.359-.637s-.554-2.507-1.287-3.036a1.363,1.363,0,0,0-1.524-.039s-.953.552-.465,1.329c0,0,.1.235.52.068a.558.558,0,0,0,.339-.419l-.011.188c0,.268-.372.417-.39.425a7.054,7.054,0,0,0-.386,1.485c0,.326.6.592,1.37.638v7.366L111,99.979a7.248,7.248,0,0,1-.91-.648,2.32,2.32,0,0,0-.335-.236,1.849,1.849,0,0,0-.736-.242,1.963,1.963,0,0,0-.618.036,2.762,2.762,0,0,0-.7.259,4.508,4.508,0,0,0-.659.428.139.139,0,0,1-.055.034l-.052-.031c-.1-.056-.19-.113-.287-.165a3.2,3.2,0,0,0-.418-.2,4.876,4.876,0,0,1-.551-.247A8.418,8.418,0,0,1,104.235,98c-.042-.035-.085-.069-.128-.1a2.243,2.243,0,0,0-1.182-.468.288.288,0,0,1-.044-.011h-.239a.5.5,0,0,1-.056.011,2.753,2.753,0,0,0-.816.2,4.309,4.309,0,0,0-.847.468,7.109,7.109,0,0,0-.847.7,10.882,10.882,0,0,0-.954,1.05,12.6,12.6,0,0,0-.805,1.12.45.45,0,0,1-.04.055q-.273.334-.577.639c-.124.126-.26.235-.389.355H94.751ZM125.3,94.9l-2.971-4.965c.851-1.945.715-5.04.644-6.03l3.263-3.6C127.472,89.2,126.007,93.454,125.3,94.9Zm13.695-5.633a1.157,1.157,0,0,1,.716.545.407.407,0,0,1,.076.262.247.247,0,0,1-.1.185.237.237,0,0,1-.207.028.409.409,0,0,1-.223-.165A1.273,1.273,0,0,1,138.994,89.266Zm-6.893,17-3.408-5.694a13.841,13.841,0,0,0,.581-4.535l4.1-2.887C134.094,101.042,132.669,105.033,132.1,106.264ZM88.11,113.129l3.2-5.347h38.84a.388.388,0,0,0-.047-.03c-.067-.038-.134-.071-.2-.11a6.62,6.62,0,0,1-.661-.465c-.382-.3-.744-.623-1.1-.953-.512-.48-1.008-.976-1.492-1.484-.317-.333-.632-.669-.937-1.014q-.2-.225-.42-.434a5.683,5.683,0,0,0-.849-.671,3.473,3.473,0,0,0-.418-.225h4.09l6.424,10.733ZM94.528,102.4H96.9a16.26,16.26,0,0,1-1.434,1.119c-.045.031-.092.061-.139.088a8.587,8.587,0,0,0-.77.529c-.4.306-.791.636-1.17.975s-.742.686-1.1,1.04Zm16.7-1.455c.09.041.18.081.273.116a2.691,2.691,0,0,1,.305.142,5.524,5.524,0,0,1,.785.517,8.337,8.337,0,0,1,1.13,1.067q.79.89,1.621,1.74.34.351.684.7c.584.581,1.18,1.148,1.8,1.688l.116.1.023.023,0,.011h-3.033a.105.105,0,0,1-.088-.03l-.2-.156c-.423-.329-.83-.678-1.229-1.037q-.687-.618-1.346-1.266-1.441-1.412-2.793-2.907c-.157-.173-.311-.35-.472-.52a9.912,9.912,0,0,0-1.122-1.028c-.015-.011-.028-.023-.045-.038l.023-.022a2.963,2.963,0,0,1,.621-.344,1.7,1.7,0,0,1,.385-.1,1.092,1.092,0,0,1,.673.117,1.551,1.551,0,0,1,.283.191,7.6,7.6,0,0,0,.723.537A6.807,6.807,0,0,0,111.225,100.941Zm12.239,2.017c.047.022.094.042.142.061a2.021,2.021,0,0,1,.337.166,4.742,4.742,0,0,1,.793.6,6.341,6.341,0,0,1,.446.457q.427.483.874.948c.266.277.537.555.808.828q.492.5,1.011.964a.165.165,0,0,1,.046.05l-.018.007h-1.688a.134.134,0,0,1-.108-.036c-.319-.259-.627-.531-.929-.809s-.585-.55-.87-.832q-.943-.934-1.831-1.917c-.126-.138-.249-.277-.379-.411a6.621,6.621,0,0,0-.954-.82l-.044-.033a.067.067,0,0,1,.015-.017,1.461,1.461,0,0,1,.464-.2.631.631,0,0,1,.471.079,1.352,1.352,0,0,1,.166.121A5.664,5.664,0,0,0,123.464,102.957Zm-2.29.223a7.059,7.059,0,0,1,.648.643c.437.493.889.974,1.349,1.447.411.424.831.841,1.262,1.245.172.161.348.319.522.478l.042.04a.2.2,0,0,1-.023.007h-2.367a.232.232,0,0,0-.029,0,.1.1,0,0,1-.078-.027c-.157-.13-.316-.256-.472-.388-.446-.375-.876-.772-1.295-1.177-.245-.236-.488-.474-.729-.715q-.943-.948-1.841-1.939c-.132-.145-.262-.292-.4-.435a7.83,7.83,0,0,0-.7-.649l-.034-.03-.007-.013.017-.013a2.349,2.349,0,0,1,.507-.292,1.151,1.151,0,0,1,.365-.085.722.722,0,0,1,.385.085,1.294,1.294,0,0,1,.22.151,6.413,6.413,0,0,0,1.192.788,3.905,3.905,0,0,0,.363.162,2.184,2.184,0,0,1,.338.166A5.085,5.085,0,0,1,121.174,103.18Zm-3.682-.027c.338.382.684.755,1.034,1.125q.476.5.965.994c.555.556,1.12,1.1,1.71,1.618.044.04.088.078.133.116l.024.025-.019.008h-2.133a.115.115,0,0,1-.093-.03c-.156-.127-.316-.252-.47-.38-.509-.424-1-.872-1.473-1.331q-.385-.371-.765-.751-1.014-1.017-1.98-2.083c-.148-.164-.293-.328-.446-.488a8.105,8.105,0,0,0-1.251-1.078,5.5,5.5,0,0,0-.669-.4l-.038-.021c.006-.007.008-.015.015-.017a2.066,2.066,0,0,1,.63-.273,1.149,1.149,0,0,1,.346-.027.959.959,0,0,1,.394.122,1.634,1.634,0,0,1,.262.183,7.24,7.24,0,0,0,1.508.965c.076.036.154.069.231.1a2.748,2.748,0,0,1,.39.188,5.737,5.737,0,0,1,.805.567A8.027,8.027,0,0,1,117.492,103.153Zm-9.479-1.77c.208.206.406.421.6.641.218.243.44.484.661.724q.6.643,1.208,1.268c.729.747,1.473,1.48,2.246,2.183.3.269.6.534.906.792l.051.045c-.018,0-.025,0-.033,0h-21.2c-.008-.021.006-.028.015-.036.1-.1.2-.2.3-.293q.476-.469.968-.918c.4-.362.805-.715,1.233-1.043a7.909,7.909,0,0,1,.8-.549c.08-.047.156-.1.233-.155a16.588,16.588,0,0,0,1.909-1.547,10.42,10.42,0,0,0,.96-1.028.555.555,0,0,0,.055-.074,11.038,11.038,0,0,1,.82-1.143,10.553,10.553,0,0,1,.757-.837,6.368,6.368,0,0,1,.9-.752,3.385,3.385,0,0,1,.672-.36,2.042,2.042,0,0,1,.5-.13,1.4,1.4,0,0,1,.854.165,2.045,2.045,0,0,1,.323.223,8.564,8.564,0,0,0,.744.558,8.363,8.363,0,0,0,.931.551,5.54,5.54,0,0,0,.522.229,2.72,2.72,0,0,1,.339.162,6.425,6.425,0,0,1,.848.556A9.2,9.2,0,0,1,108.013,101.384Zm-4.789,13.139a10.071,10.071,0,0,0,3.42,1.654c-.821.247-6.164,1.657-10.73-1.654Zm7.285,4.335s.509-2.657.8-4.335h0c.3,1.677.8,4.335.8,4.335a3.034,3.034,0,0,1-.8,2.477A3.037,3.037,0,0,1,110.509,118.857Zm8.9-4.335h7.308c-4.565,3.311-9.907,1.9-10.73,1.654A10.065,10.065,0,0,0,119.409,114.523Zm18.6-26.186a.391.391,0,0,1-.073-.289.253.253,0,0,1,.078-.137.834.834,0,0,0,.067.052,2.185,2.185,0,0,1,.646.641.736.736,0,0,1,0,.277A1.274,1.274,0,0,1,138.006,88.337Zm-5.742-12.79a.325.325,0,0,1-.451-.039,1.341,1.341,0,0,1-.432-.729.173.173,0,0,0,.024-.044,1.156,1.156,0,0,1,.781.372A.322.322,0,0,1,132.264,75.547Zm-.61-2.1.824-.28h0l-.2.845-.656.1h0Zm-1.529.159a.24.24,0,0,1,.18-.074.42.42,0,0,1,.275.116,1.2,1.2,0,0,1,.428.709.213.213,0,0,0-.139.04,1.461,1.461,0,0,1-.666-.351A.322.322,0,0,1,130.125,73.6Zm-17.8-9.918a.7.7,0,0,1,.086,0,.283.283,0,1,1-.006.547,1.272,1.272,0,0,1-.851-.275A1.08,1.08,0,0,1,112.326,63.684Zm-1.009-1.628h0l.421.761-.42.512h0l-.421-.511Zm-1.089,2.181h0a.391.391,0,0,1-.277-.107.223.223,0,0,1,0-.333.4.4,0,0,1,.291-.108,1.134,1.134,0,0,1,.845.271A1.265,1.265,0,0,1,110.228,64.237Zm.9,5.069a7.671,7.671,0,0,0,.856-2.066,11.13,11.13,0,0,1-.283,4.949l-.392-.658-1.287,2.153A7.052,7.052,0,0,1,111.133,69.306Zm-19.071,4.33a.374.374,0,0,1,.277-.108.239.239,0,0,1,.167.074.234.234,0,0,1,.057.173.4.4,0,0,1-.138.271,1.3,1.3,0,0,1-.773.369H91.61A1.157,1.157,0,0,1,92.062,73.636Zm-1.908-.471h0l.822.28.034.663h0l-.656-.1Zm.382,2.455a.232.232,0,0,1-.167-.073.24.24,0,0,1-.057-.174.4.4,0,0,1,.142-.274,1.184,1.184,0,0,1,.752-.371l.057,0a1.274,1.274,0,0,1-.448.781A.366.366,0,0,1,90.536,75.62ZM84.623,88.342a1.267,1.267,0,0,1-.715.539.71.71,0,0,1,0-.258,2.241,2.241,0,0,1,.66-.66.691.691,0,0,0,.058-.046.255.255,0,0,1,.075.159A.411.411,0,0,1,84.623,88.342Zm-5.007,12a4.29,4.29,0,0,0,.124-.468.281.281,0,0,1,.2-.12,2.019,2.019,0,0,0,.933-.378,2.845,2.845,0,0,1,.931-.554c.6-.222.6-.755,1.153-1.751a6.439,6.439,0,0,0,.31-2.927,3.844,3.844,0,0,1-1.054,1.036,5.658,5.658,0,0,0-.13-1.21,3.956,3.956,0,0,1,0-.931c-1.375.71-1.531,2.018-2.151,2.706l-.007.007a36.852,36.852,0,0,1,.784-4.4v0c.067-.222.532-.465,1.086-.62a2.309,2.309,0,0,0,.81-.65v.01a.477.477,0,0,0,.2.362.455.455,0,0,0,.269.085.517.517,0,0,0,.141-.019.6.6,0,0,0,.2-.1l-.127.792s-.114.337.539.475c-.153,1.659-1.1,13.78,2.958,20.853l-.281.469a8.424,8.424,0,0,1-1.183-1.566,1.5,1.5,0,0,1-.156.931,3.067,3.067,0,0,0-.305,1.343,2.786,2.786,0,0,1-.138-1.034,4.639,4.639,0,0,0,.133-1.618,15.878,15.878,0,0,0-.288-1.84c-.088.842-.711.842-1.021,1.685a3.839,3.839,0,0,1-.687,1.243,2.311,2.311,0,0,0-.371,1.066c-.35-1.005-.677-2.018-.973-3.01A4.405,4.405,0,0,0,81.706,109c.349-.321.686-.349.83-.553.155-.245.09-.533.245-.843a6.071,6.071,0,0,0,.532-1.088c.155-.843.621-1.773.223-2.682,0,0-.2.067-.428.154a1.961,1.961,0,0,1,.113-.461,8.385,8.385,0,0,0-.154-2.926,6.758,6.758,0,0,0-.933.843c-.31.377-.843.532-1,1s-.465.468-.688.933a3.275,3.275,0,0,0-.349,1.254,21.57,21.57,0,0,1-.478-3.139C79.612,101.139,79.611,100.754,79.616,100.344ZM114.442,132.3a4.308,4.308,0,0,0-1.986.5c-.008-.022-.017-.042-.027-.063a36.539,36.539,0,0,1,2.7-3.948A3.4,3.4,0,0,1,114.442,132.3Zm-4.135.5a4.318,4.318,0,0,0-1.986-.5,3.4,3.4,0,0,1-.692-3.51,36.6,36.6,0,0,1,2.7,3.947C110.324,132.755,110.315,132.776,110.307,132.8Zm23.75-9.733a.714.714,0,0,0,.094-.228,4.789,4.789,0,0,0,.311-1.463,8.967,8.967,0,0,0-.465-1.84c-.223-.555-.755-1.84-1.309-2.084,0,0-.443,1.464-.6,2a4.574,4.574,0,0,1-.555,1.463,6.651,6.651,0,0,0-.34.586,4.018,4.018,0,0,1,.029-1.028c.088-1.02-1.531-2.616-1.531-2.616a5.5,5.5,0,0,1-.776,2.616,5.572,5.572,0,0,0-.843,2.216,2.659,2.659,0,0,1-.621,1.464c-.46.626.053,3.257.114,3.558-1.029.638-2.105,1.257-3.107,1.763-.3.148-.64.3-1.008.455.069-.067.138-.12.206-.191a5.271,5.271,0,0,0,1.531-2.371c.478-.084-.646-.206-1.3-.147.382-.58.911-1.373,1.278-2.052.288-.555-2.484.177-2.484.177-.3.121-.54.213-.738.287a12.064,12.064,0,0,0,.448-1.945c-.022-.222-1.176.155-2.107.555a13.964,13.964,0,0,0-1.951,1.4c-.821.532-.933,1.862-1.309,2.483a5.022,5.022,0,0,0-.483,1.036,1.22,1.22,0,0,0-.547-1.032l0,0-.034-.016a.369.369,0,0,0-.041-.016.8.8,0,0,0-.155-.041c-.177-.039-.464-.084-.918-.134a2.012,2.012,0,0,0-2.086.865,24.3,24.3,0,0,0-1.014,3.256.986.986,0,0,0-.36-.076.975.975,0,0,0-.359.076,24.444,24.444,0,0,0-1.015-3.256,2.012,2.012,0,0,0-2.086-.865c-.454.051-.741.1-.918.134a.8.8,0,0,0-.155.041l-.041.016-.033.016,0,0c-.283.144-.562.524-.573,1.433a3.855,3.855,0,0,0-.574-1.436c-.377-.621-.488-1.951-1.309-2.483a13.964,13.964,0,0,0-1.951-1.4c-.933-.4-2.086-.776-2.107-.555a12.063,12.063,0,0,0,.448,1.945c-.2-.074-.437-.166-.738-.287,0,0-2.774-.732-2.484-.177.367.678.9,1.472,1.278,2.052-.654-.059-1.779.063-1.3.147a5.271,5.271,0,0,0,1.531,2.371c.067.071.137.125.206.191-.369-.155-.71-.308-1.008-.455-1-.506-2.077-1.125-3.108-1.763.062-.3.575-2.932.115-3.558a2.658,2.658,0,0,1-.621-1.464,5.572,5.572,0,0,0-.843-2.216,5.5,5.5,0,0,1-.776-2.616s-1.619,1.6-1.531,2.616a4.018,4.018,0,0,1,.029,1.028,6.653,6.653,0,0,0-.34-.586,4.574,4.574,0,0,1-.555-1.463c-.156-.532-.6-2-.6-2-.555.245-1.088,1.53-1.309,2.084a8.967,8.967,0,0,0-.465,1.84,4.824,4.824,0,0,0,.31,1.463.753.753,0,0,0,.1.228,12.323,12.323,0,0,1-3.036-3.1,1.607,1.607,0,0,1,.326-.809,5.978,5.978,0,0,0,1.153-1.773,4.107,4.107,0,0,0,0-1.4,12.729,12.729,0,0,1,.222-1.376l-.027-.088h1.291c2.3,1.7,10.577,6.919,20.313,2.668a1.384,1.384,0,0,1-.155.348s-2.092,2.837,2.636,3.8h0c4.726-.96,2.636-3.8,2.636-3.8a1.341,1.341,0,0,1-.156-.35c9.738,4.256,18.017-.968,20.32-2.666h1.306l-.027.088a12.728,12.728,0,0,1,.222,1.376,4.106,4.106,0,0,0,0,1.4,5.977,5.977,0,0,0,1.153,1.773,1.607,1.607,0,0,1,.326.809A12.324,12.324,0,0,1,134.057,123.065Z" transform="translate(-74.071 -60.846)" fill="#c5c8cf"/>
      <path id="Trazado_762" data-name="Trazado 762" d="M117.454,114.41a.45.45,0,0,0-.466.443.455.455,0,0,0,.466.466.469.469,0,0,0,.465-.466A.463.463,0,0,0,117.454,114.41Z" transform="translate(-65.008 -49.535)" fill="#c5c8cf"/>
      <path id="Trazado_763" data-name="Trazado 763" d="M119.615,117.062a.468.468,0,0,0-.465.466.454.454,0,0,0,.465.465.468.468,0,0,0,.466-.465A.485.485,0,0,0,119.615,117.062Z" transform="translate(-64.551 -48.975)" fill="#c5c8cf"/>
      <path id="Trazado_764" data-name="Trazado 764" d="M124.634,108.679a.468.468,0,0,0-.465.465.484.484,0,0,0,.465.466.469.469,0,0,0,.466-.466A.455.455,0,0,0,124.634,108.679Z" transform="translate(-63.491 -50.745)" fill="#c5c8cf"/>
      <path id="Trazado_765" data-name="Trazado 765" d="M127.247,110.672a.517.517,0,0,0,.511.511.5.5,0,0,0,.51-.511.516.516,0,0,0-.51-.51A.533.533,0,0,0,127.247,110.672Z" transform="translate(-62.841 -50.432)" fill="#c5c8cf"/>
      <path id="Trazado_766" data-name="Trazado 766" d="M128.323,101.774a.5.5,0,0,0,.51-.51.515.515,0,0,0-.51-.51.531.531,0,0,0-.51.51A.515.515,0,0,0,128.323,101.774Z" transform="translate(-62.722 -52.419)" fill="#c5c8cf"/>
      <path id="Trazado_767" data-name="Trazado 767" d="M129.607,93.138a.5.5,0,0,0-.511.51.511.511,0,0,0,1.021,0A.5.5,0,0,0,129.607,93.138Z" transform="translate(-62.451 -54.027)" fill="#c5c8cf"/>
      <path id="Trazado_768" data-name="Trazado 768" d="M131.949,86.446a.5.5,0,1,0,0-1,.5.5,0,1,0,0,1Z" transform="translate(-61.956 -55.651)" fill="#c5c8cf"/>
      <path id="Trazado_769" data-name="Trazado 769" d="M128.965,87.217a.5.5,0,0,0,.51-.509.51.51,0,1,0-1.02,0A.5.5,0,0,0,128.965,87.217Z" transform="translate(-62.586 -55.492)" fill="#c5c8cf"/>
      <path id="Trazado_770" data-name="Trazado 770" d="M126.545,80.282a.5.5,0,0,0-.51-.488.5.5,0,1,0,0,1A.5.5,0,0,0,126.545,80.282Z" transform="translate(-63.205 -56.845)" fill="#c5c8cf"/>
      <path id="Trazado_771" data-name="Trazado 771" d="M128.268,79.02a.5.5,0,0,0,.511-.511.511.511,0,0,0-1.021,0A.5.5,0,0,0,128.268,79.02Z" transform="translate(-62.733 -57.224)" fill="#c5c8cf"/>
      <path id="Trazado_772" data-name="Trazado 772" d="M132.393,93.718a.5.5,0,0,0,.51.487.488.488,0,0,0,0-.976A.5.5,0,0,0,132.393,93.718Z" transform="translate(-61.755 -54.008)" fill="#c5c8cf"/>
      <path id="Trazado_773" data-name="Trazado 773" d="M92.365,114.41a.463.463,0,0,0-.465.443.469.469,0,0,0,.465.466.455.455,0,0,0,.466-.466A.45.45,0,0,0,92.365,114.41Z" transform="translate(-70.306 -49.535)" fill="#c5c8cf"/>
      <path id="Trazado_774" data-name="Trazado 774" d="M90.669,117.528a.468.468,0,0,0-.465-.466.485.485,0,0,0-.466.466.468.468,0,0,0,.466.465A.454.454,0,0,0,90.669,117.528Z" transform="translate(-70.762 -48.975)" fill="#c5c8cf"/>
      <path id="Trazado_775" data-name="Trazado 775" d="M85.184,108.679a.455.455,0,0,0-.465.465.469.469,0,0,0,.465.466.484.484,0,0,0,.466-.466A.469.469,0,0,0,85.184,108.679Z" transform="translate(-71.822 -50.745)" fill="#c5c8cf"/>
      <path id="Trazado_776" data-name="Trazado 776" d="M82.077,111.183a.517.517,0,0,0,.511-.511.533.533,0,0,0-.511-.51.516.516,0,0,0-.51.51A.5.5,0,0,0,82.077,111.183Z" transform="translate(-72.488 -50.432)" fill="#c5c8cf"/>
      <path id="Trazado_777" data-name="Trazado 777" d="M81.512,100.754a.515.515,0,0,0-.51.51.5.5,0,0,0,.51.51.515.515,0,0,0,.51-.51A.531.531,0,0,0,81.512,100.754Z" transform="translate(-72.607 -52.419)" fill="#c5c8cf"/>
      <path id="Trazado_778" data-name="Trazado 778" d="M79.4,102.032a.5.5,0,0,0-.51-.51.51.51,0,1,0,0,1.02A.5.5,0,0,0,79.4,102.032Z" transform="translate(-73.161 -52.256)" fill="#c5c8cf"/>
      <path id="Trazado_779" data-name="Trazado 779" d="M80.228,94.158a.516.516,0,0,0,.511-.51.511.511,0,0,0-1.021,0A.515.515,0,0,0,80.228,94.158Z" transform="translate(-72.878 -54.027)" fill="#c5c8cf"/>
      <path id="Trazado_780" data-name="Trazado 780" d="M77.886,86.446a.5.5,0,1,0,0-1,.5.5,0,1,0,0,1Z" transform="translate(-73.373 -55.651)" fill="#c5c8cf"/>
      <path id="Trazado_781" data-name="Trazado 781" d="M80.87,86.2a.515.515,0,0,0-.51.51.51.51,0,0,0,1.02,0A.515.515,0,0,0,80.87,86.2Z" transform="translate(-72.743 -55.492)" fill="#c5c8cf"/>
      <path id="Trazado_782" data-name="Trazado 782" d="M83.289,80.282a.5.5,0,0,0,.51.51.5.5,0,1,0,0-1A.5.5,0,0,0,83.289,80.282Z" transform="translate(-72.124 -56.845)" fill="#c5c8cf"/>
      <path id="Trazado_783" data-name="Trazado 783" d="M81.566,79.02a.5.5,0,0,0,.511-.511.511.511,0,0,0-1.021,0A.5.5,0,0,0,81.566,79.02Z" transform="translate(-72.596 -57.224)" fill="#c5c8cf"/>
      <path id="Trazado_784" data-name="Trazado 784" d="M77.438,93.718a.5.5,0,0,0-.51-.489.488.488,0,0,0,0,.976A.5.5,0,0,0,77.438,93.718Z" transform="translate(-73.57 -54.008)" fill="#c5c8cf"/>
      <path id="Trazado_785" data-name="Trazado 785" d="M99.887,87.858c.222-.045.288.022.377.222l.133-.045-.133-.31.888-.377-.09-.178-1.241.555Z" transform="translate(-68.633 -55.287)" fill="#c5c8cf"/>
      <path id="Trazado_786" data-name="Trazado 786" d="M99.666,86.465l-.177.022.155.688.755-.067-.022-.133a.328.328,0,0,1-.2-.222.3.3,0,0,1,.222-.355.283.283,0,0,1,.377.2.239.239,0,0,1-.154.332l.044.178a.4.4,0,0,0,.266-.511.451.451,0,0,0-.577-.375.427.427,0,0,0-.333.532.389.389,0,0,0,.155.243l-.377.022Z" transform="translate(-68.703 -55.492)" fill="#c5c8cf"/>
      <path id="Trazado_787" data-name="Trazado 787" d="M99.761,85.681c.245.023.311-.177.355-.265l.09-.288c.065-.222.11-.288.265-.266.2.023.222.245.2.377-.022.178-.111.378-.355.355l-.022.177a.425.425,0,0,0,.377-.11.614.614,0,0,0,.155-.4c.022-.245-.045-.555-.377-.577a.327.327,0,0,0-.377.265l-.133.4a.2.2,0,0,1-.2.155c-.2-.023-.222-.223-.2-.355a.29.29,0,0,1,.31-.311v-.177c-.155,0-.443.023-.488.511A.432.432,0,0,0,99.761,85.681Z" transform="translate(-68.73 -55.817)" fill="#c5c8cf"/>
      <path id="Trazado_788" data-name="Trazado 788" d="M101.168,83.819l-.155-.044-.267.8-.444-.155.244-.71-.155-.066-.244.732-.4-.133.265-.776-.177-.067-.311.976,1.331.422Z" transform="translate(-68.695 -56.084)" fill="#c5c8cf"/>
      <path id="Trazado_789" data-name="Trazado 789" d="M101.266,83.73l-.511-.32.223-.367a.406.406,0,0,0-.127-.591.367.367,0,0,0-.288-.047.455.455,0,0,0-.271.207l-.3.527,1.166.735Zm-1.039-.671.208-.32a.212.212,0,0,1,.208-.127.274.274,0,0,1,.1.048c.133.088.137.2.047.334l-.176.288Z" transform="translate(-68.598 -56.296)" fill="#c5c8cf"/>
      <path id="Trazado_790" data-name="Trazado 790" d="M101.051,81.983l.888.842.11-.133-.864-.843.333-.354-.133-.111-.776.821.111.111Z" transform="translate(-68.467 -56.509)" fill="#c5c8cf"/>
      <path id="Trazado_791" data-name="Trazado 791" d="M102.481,82.237l-.843-1.109-.133.111.821,1.109Z" transform="translate(-68.277 -56.563)" fill="#c5c8cf"/>
      <path id="Trazado_792" data-name="Trazado 792" d="M103.516,81.707l-.067-.133-.754.377-.2-.4.665-.355-.066-.155-.688.354-.2-.376.732-.377-.067-.155-.909.465.644,1.242Z" transform="translate(-68.181 -56.698)" fill="#c5c8cf"/>
      <path id="Trazado_793" data-name="Trazado 793" d="M103.6,81.7l-.177-.82a1.33,1.33,0,0,1-.088-.333l.643,1.065.178-.045.132-1.218a1.391,1.391,0,0,1,.067.332l.178.8h0l.177-.021-.288-1.376-.265.067-.133,1.241-.643-1.065-.266.045.31,1.353Z" transform="translate(-67.937 -56.783)" fill="#c5c8cf"/>
      <path id="Trazado_794" data-name="Trazado 794" d="M105.21,81.475c.309.022.5-.145.5-.368a.325.325,0,0,0-.241-.35.3.3,0,0,0,.193-.288c.022-.2-.1-.361-.368-.383l-.607-.016-.064,1.388Zm-.32-1.214.3.031c.2,0,.271.058.271.191-.022.155-.109.2-.287.176h-.32Zm.3.607c.133,0,.288.046.288.223,0,.133-.11.224-.288.224l-.351-.031.016-.448Z" transform="translate(-67.62 -56.786)" fill="#c5c8cf"/>
      <path id="Trazado_795" data-name="Trazado 795" d="M104.666,80.07h0Z" transform="translate(-67.61 -56.787)" fill="#c5c8cf"/>
      <path id="Trazado_796" data-name="Trazado 796" d="M105.968,81.006l.447.127c.222.065.2.193.176.3a.767.767,0,0,0-.064.335l.224.064V81.82c-.044-.045-.039-.07-.016-.16l.031-.24c.067-.177,0-.243-.064-.287.09-.045.228-.073.273-.271.088-.288-.114-.413-.335-.48l-.624-.207-.367,1.358.176.047Zm.223-.591.4.143c.09.023.226.057.16.256-.045.178-.171.166-.3.144l-.384-.111Z" transform="translate(-67.402 -56.764)" fill="#c5c8cf"/>
      <path id="Trazado_797" data-name="Trazado 797" d="M107.557,82.342l.066-.133-.71-.422.222-.4.666.377.089-.133-.665-.4.222-.354.71.421.089-.155-.888-.51-.688,1.2Z" transform="translate(-67.187 -56.667)" fill="#c5c8cf"/>
      <path id="Trazado_798" data-name="Trazado 798" d="M108.175,83a.636.636,0,0,0,.927-.016.6.6,0,0,0,.143-.894l-.367-.415-1.055.878Zm.894-.767c.156.178.133.371-.111.591-.243.2-.468.194-.624.016l-.207-.239.735-.624Z" transform="translate(-66.943 -56.447)" fill="#c5c8cf"/>
      <path id="Trazado_799" data-name="Trazado 799" d="M108.967,84.287l.155-.066-.377-.754.421-.2.332.687.155-.089L109.3,83.2l.4-.2.355.732.155-.067-.466-.909-1.242.621Z" transform="translate(-66.8 -56.219)" fill="#c5c8cf"/>
      <path id="Trazado_800" data-name="Trazado 800" d="M110.021,84.812l-.954.132.022.178,1.354-.2-.023-.132c-.222-.023-.243-.088-.31-.31l-.133.022Z" transform="translate(-66.68 -55.855)" fill="#c5c8cf"/>
      <path id="Trazado_801" data-name="Trazado 801" d="M110.128,85.436a.262.262,0,0,0-.273.191.365.365,0,0,0-.335-.271.4.4,0,0,0-.319.128.543.543,0,0,0-.113.334.4.4,0,0,0,.4.464.319.319,0,0,0,.351-.191.266.266,0,0,0,.273.176c.177.022.367-.09.367-.4A.366.366,0,0,0,110.128,85.436Zm-.639.655c-.2,0-.224-.161-.224-.273a.225.225,0,0,1,.256-.239.221.221,0,0,1,.208.271A.215.215,0,0,1,109.489,86.091Zm.639,0a.262.262,0,0,1-.208-.256.2.2,0,0,1,.208-.191c.088,0,.2.045.176.223C110.3,86.044,110.2,86.091,110.128,86.091Z" transform="translate(-66.676 -55.67)" fill="#c5c8cf"/>
      <path id="Trazado_802" data-name="Trazado 802" d="M109.968,86.408l-.023.177c.09.022.311.088.245.333-.045.2-.2.243-.288.2-.178-.022-.223-.155-.266-.31l-.045-.2a.632.632,0,0,0-.466-.443l-.222.91.156.045.177-.732c.067.022.156.088.2.287l.045.155c.067.245.133.421.355.466a.415.415,0,0,0,.51-.31A.451.451,0,0,0,109.968,86.408Z" transform="translate(-66.715 -55.5)" fill="#c5c8cf"/>
      <path id="Trazado_803" data-name="Trazado 803" d="M109.755,87.448l-.133.288-.866-.421-.088.177,1.243.577.045-.133c-.178-.132-.155-.222-.067-.443Z" transform="translate(-66.765 -55.256)" fill="#c5c8cf"/>
      <path id="Trazado_804" data-name="Trazado 804" d="M103.43,92.2l.148.031,1.019-4.2c-.05-.007-.1,0-.151-.016l-1.006,4.152Z" transform="translate(-67.871 -55.109)" fill="#c5c8cf"/>
      <path id="Trazado_805" data-name="Trazado 805" d="M103.309,90.417l.143.05.851-2.489c-.048-.013-.1-.029-.144-.045l-.838,2.449Z" transform="translate(-67.896 -55.126)" fill="#c5c8cf"/>
      <path id="Trazado_806" data-name="Trazado 806" d="M102.11,91.971l.136.064,1.971-4.142-.139-.059-1.95,4.1Z" transform="translate(-68.15 -55.147)" fill="#c5c8cf"/>
      <path id="Trazado_807" data-name="Trazado 807" d="M101.877,91.306l2.137-3.522c-.045-.023-.09-.047-.133-.073l-2.133,3.516Z" transform="translate(-68.226 -55.173)" fill="#c5c8cf"/>
      <path id="Trazado_808" data-name="Trazado 808" d="M100.771,91.4l-.024.03.119.092,3.04-3.878c-.041-.028-.075-.065-.116-.1Z" transform="translate(-68.437 -55.207)" fill="#c5c8cf"/>
      <path id="Trazado_809" data-name="Trazado 809" d="M100.952,90.477l2.686-2.988.008-.008c-.039-.033-.08-.063-.117-.1l-2.69,2.993Z" transform="translate(-68.418 -55.242)" fill="#c5c8cf"/>
      <path id="Trazado_810" data-name="Trazado 810" d="M103.67,87.311c-.035-.036-.063-.079-.1-.117L99.593,90.7l.1.114,3.964-3.493Z" transform="translate(-68.681 -55.282)" fill="#c5c8cf"/>
      <path id="Trazado_811" data-name="Trazado 811" d="M103.167,87.092h0c-.031-.041-.069-.076-.1-.119l-2.1,1.482-.03.023.088.124Z" transform="translate(-68.397 -55.329)" fill="#c5c8cf"/>
      <path id="Trazado_812" data-name="Trazado 812" d="M102.893,86.875c-.027-.042-.048-.088-.073-.133l-1.47.82.071.132Z" transform="translate(-68.31 -55.378)" fill="#c5c8cf"/>
      <path id="Trazado_813" data-name="Trazado 813" d="M101.172,87.194l.061.139,1.554-.677c-.023-.046-.053-.087-.073-.134Z" transform="translate(-68.348 -55.424)" fill="#c5c8cf"/>
      <path id="Trazado_814" data-name="Trazado 814" d="M101.026,86.782l.047.143,1.576-.508.036-.011-.047-.144Z" transform="translate(-68.378 -55.479)" fill="#c5c8cf"/>
      <path id="Trazado_815" data-name="Trazado 815" d="M102.616,86.154c-.012-.05-.028-.1-.038-.147l-1.654.362.033.149Z" transform="translate(-68.4 -55.533)" fill="#c5c8cf"/>
      <path id="Trazado_816" data-name="Trazado 816" d="M100.854,85.925l.018.15,1.7-.182c-.007-.05-.011-.1-.016-.15Z" transform="translate(-68.415 -55.588)" fill="#c5c8cf"/>
      <path id="Trazado_817" data-name="Trazado 817" d="M100.832,85.633l1.715-.017c0-.025-.007-.05-.007-.075s.007-.051.007-.076l-1.716.017Z" transform="translate(-68.42 -55.647)" fill="#c5c8cf"/>
      <path id="Trazado_818" data-name="Trazado 818" d="M100.855,85.246l1.673.145.029,0c0-.051.01-.1.016-.15l-1.665-.144-.038,0Z" transform="translate(-68.415 -55.725)" fill="#c5c8cf"/>
      <path id="Trazado_819" data-name="Trazado 819" d="M100.9,84.8l1.686.366c.008-.05.019-.1.03-.147l-1.686-.367Z" transform="translate(-68.406 -55.818)" fill="#c5c8cf"/>
      <path id="Trazado_820" data-name="Trazado 820" d="M101.01,84.43l1.6.526.023.007c.013-.048.028-.1.045-.144l-1.617-.532Z" transform="translate(-68.382 -55.896)" fill="#c5c8cf"/>
      <path id="Trazado_821" data-name="Trazado 821" d="M101.188,83.906l-.062.138,1.579.672c.019-.047.044-.091.065-.137l-1.549-.659Z" transform="translate(-68.357 -55.976)" fill="#c5c8cf"/>
      <path id="Trazado_822" data-name="Trazado 822" d="M101.3,83.672l1.5.815.015.008c.024-.045.046-.09.073-.133l-1.516-.822Z" transform="translate(-68.32 -56.054)" fill="#c5c8cf"/>
      <path id="Trazado_823" data-name="Trazado 823" d="M101.542,83.328l1.37.977c.029-.042.067-.076.1-.117L101.63,83.2Z" transform="translate(-68.269 -56.125)" fill="#c5c8cf"/>
      <path id="Trazado_824" data-name="Trazado 824" d="M101.911,82.883l-.1.116,1.258,1.086.011.011c.033-.039.062-.08.1-.116l-1.238-1.073Z" transform="translate(-68.212 -56.192)" fill="#c5c8cf"/>
      <path id="Trazado_825" data-name="Trazado 825" d="M102.207,82.6l-.11.1,1.151,1.208c.036-.035.078-.064.116-.1l-1.131-1.189Z" transform="translate(-68.152 -56.252)" fill="#c5c8cf"/>
      <path id="Trazado_826" data-name="Trazado 826" d="M102.526,82.346l-.119.1,1.042,1.3c.041-.03.075-.067.117-.1l-1.017-1.274Z" transform="translate(-68.087 -56.306)" fill="#c5c8cf"/>
      <path id="Trazado_827" data-name="Trazado 827" d="M102.924,82.119l-.131.074.822,1.419.007.012c.042-.027.087-.048.132-.073l-.813-1.4Z" transform="translate(-68.005 -56.354)" fill="#c5c8cf"/>
      <path id="Trazado_828" data-name="Trazado 828" d="M103.278,81.96l-.137.064.687,1.482c.046-.022.09-.047.137-.065l-.671-1.447Z" transform="translate(-67.932 -56.387)" fill="#c5c8cf"/>
      <path id="Trazado_829" data-name="Trazado 829" d="M103.678,81.819l-.142.048.539,1.543c.048-.016.1-.031.144-.045l-.529-1.512Z" transform="translate(-67.848 -56.417)" fill="#c5c8cf"/>
      <path id="Trazado_830" data-name="Trazado 830" d="M104.094,81.693l-.148.031.335,1.619v0c.05-.011.1-.018.149-.027l-.329-1.59Z" transform="translate(-67.762 -56.444)" fill="#c5c8cf"/>
      <path id="Trazado_831" data-name="Trazado 831" d="M104.538,83.311c.05-.006.1-.012.15-.016l-.165-1.653-.149.012Z" transform="translate(-67.671 -56.454)" fill="#c5c8cf"/>
      <path id="Trazado_832" data-name="Trazado 832" d="M104.894,81.63h-.151l.017,1.652.024,0c.044,0,.085.011.127.012l-.017-1.627Z" transform="translate(-67.593 -56.457)" fill="#c5c8cf"/>
      <path id="Trazado_833" data-name="Trazado 833" d="M105.009,83.286l0,.021c.051,0,.1.008.15.016l.16-1.669-.149-.015Z" transform="translate(-67.538 -56.455)" fill="#c5c8cf"/>
      <path id="Trazado_834" data-name="Trazado 834" d="M105.4,83.362l.031.007.329-1.648-.148-.029-.327,1.638C105.322,83.337,105.357,83.354,105.4,83.362Z" transform="translate(-67.48 -56.444)" fill="#c5c8cf"/>
      <path id="Trazado_835" data-name="Trazado 835" d="M106.187,81.864l-.143-.048-.521,1.539-.011.033c.048.015.1.028.144.045l.518-1.533Z" transform="translate(-67.431 -56.418)" fill="#c5c8cf"/>
      <path id="Trazado_836" data-name="Trazado 836" d="M106.591,82.018l-.138-.062-.665,1.486-.01.021c.047.021.088.05.134.073l.664-1.482Z" transform="translate(-67.375 -56.388)" fill="#c5c8cf"/>
      <path id="Trazado_837" data-name="Trazado 837" d="M106.816,82.113l-.792,1.413-.018.033.132.074.81-1.446Z" transform="translate(-67.327 -56.355)" fill="#c5c8cf"/>
      <path id="Trazado_838" data-name="Trazado 838" d="M106.22,83.656l-.01.013c.041.029.076.065.116.1l1.006-1.3.022-.029-.12-.092Z" transform="translate(-67.284 -56.307)" fill="#c5c8cf"/>
      <path id="Trazado_839" data-name="Trazado 839" d="M106.429,83.822l.111.1,1.105-1.2.026-.028-.112-.1Z" transform="translate(-67.237 -56.254)" fill="#c5c8cf"/>
      <rect id="Rectngulo_81" data-name="Rectngulo 81" width="1.661" height="0.151" transform="matrix(0.745, -0.667, 0.667, 0.745, 39.424, 27.79)" fill="#c5c8cf"/>
      <path id="Trazado_840" data-name="Trazado 840" d="M106.828,84.17l-.027.019c.03.04.068.075.1.116l1.308-.968.03-.022-.088-.122Z" transform="translate(-67.159 -56.127)" fill="#c5c8cf"/>
      <path id="Trazado_841" data-name="Trazado 841" d="M106.965,84.342l-.03.016c.027.044.048.09.073.134l1.444-.813.033-.018-.075-.132Z" transform="translate(-67.131 -56.056)" fill="#c5c8cf"/>
      <path id="Trazado_842" data-name="Trazado 842" d="M107.086,84.561l-.021.008c.022.046.047.088.067.136l1.5-.659.033-.016-.062-.137Z" transform="translate(-67.103 -55.979)" fill="#c5c8cf"/>
      <path id="Trazado_843" data-name="Trazado 843" d="M107.166,84.8c.017.047.031.1.045.144l1.533-.522.035-.012-.051-.143Z" transform="translate(-67.082 -55.899)" fill="#c5c8cf"/>
      <path id="Trazado_844" data-name="Trazado 844" d="M107.237,85c.012.048.025.1.034.147l1.628-.366-.035-.147Z" transform="translate(-67.067 -55.822)" fill="#c5c8cf"/>
      <path id="Trazado_845" data-name="Trazado 845" d="M107.279,85.225c.007.05.012.1.016.15l1.6-.143.039,0-.015-.15Z" transform="translate(-67.058 -55.729)" fill="#c5c8cf"/>
      <path id="Trazado_846" data-name="Trazado 846" d="M107.315,85.546c0,.017,0,.033-.006.05l1.646.017,0-.15-1.653-.017C107.305,85.479,107.315,85.512,107.315,85.546Z" transform="translate(-67.053 -55.651)" fill="#c5c8cf"/>
      <path id="Trazado_847" data-name="Trazado 847" d="M107.273,85.984c-.01.051-.021.1-.033.149l1.588.361.034-.148Z" transform="translate(-67.066 -55.538)" fill="#c5c8cf"/>
      <path id="Trazado_848" data-name="Trazado 848" d="M108.919,86.051l.016-.149-1.639-.18,0,.034c0,.039-.006.078-.011.116l1.6.176Z" transform="translate(-67.058 -55.593)" fill="#c5c8cf"/>
      <path id="Trazado_849" data-name="Trazado 849" d="M108.714,86.9l.048-.143-1.519-.506-.036-.012,0,.012c-.013.045-.027.09-.041.133l1.515.5Z" transform="translate(-67.083 -55.484)" fill="#c5c8cf"/>
      <path id="Trazado_850" data-name="Trazado 850" d="M107.13,86.5c-.019.047-.047.09-.068.136l1.453.655.034.016.063-.138-1.481-.669Z" transform="translate(-67.104 -55.429)" fill="#c5c8cf"/>
      <path id="Trazado_851" data-name="Trazado 851" d="M106.944,86.85l1.378.8.033.018.074-.132-1.412-.815C106.992,86.762,106.969,86.808,106.944,86.85Z" transform="translate(-67.129 -55.383)" fill="#c5c8cf"/>
      <path id="Trazado_852" data-name="Trazado 852" d="M106.8,87.065l2.055,1.5.09-.125-2.048-1.495C106.865,86.991,106.827,87.025,106.8,87.065Z" transform="translate(-67.16 -55.334)" fill="#c5c8cf"/>
      <path id="Trazado_853" data-name="Trazado 853" d="M106.714,87.167c-.033.039-.062.08-.1.116l3.8,3.464.027.024.1-.113-3.813-3.475Z" transform="translate(-67.198 -55.288)" fill="#c5c8cf"/>
      <path id="Trazado_854" data-name="Trazado 854" d="M106.43,87.454l2.587,2.978.115-.1-2.583-2.977,0,0c-.027.025-.056.047-.085.07Z" transform="translate(-67.237 -55.248)" fill="#c5c8cf"/>
      <path id="Trazado_855" data-name="Trazado 855" d="M106.236,87.614l2.924,3.861.12-.091-2.926-3.868C106.314,87.549,106.277,87.585,106.236,87.614Z" transform="translate(-67.278 -55.214)" fill="#c5c8cf"/>
      <path id="Trazado_856" data-name="Trazado 856" d="M105.987,87.755l2.034,3.47.019.034.13-.076-2.049-3.5C106.077,87.711,106.032,87.731,105.987,87.755Z" transform="translate(-67.331 -55.179)" fill="#c5c8cf"/>
      <path id="Trazado_857" data-name="Trazado 857" d="M105.767,87.876l1.872,4.078.016.033.138-.062L105.9,87.8C105.854,87.825,105.814,87.855,105.767,87.876Z" transform="translate(-67.377 -55.153)" fill="#c5c8cf"/>
      <path id="Trazado_858" data-name="Trazado 858" d="M105.5,87.956l.8,2.431.012.036.144-.048-.815-2.464C105.592,87.928,105.543,87.941,105.5,87.956Z" transform="translate(-67.435 -55.131)" fill="#c5c8cf"/>
      <path id="Trazado_859" data-name="Trazado 859" d="M105.244,88.023l.975,4.162.148-.035-.975-4.162C105.342,88,105.295,88.013,105.244,88.023Z" transform="translate(-67.488 -55.114)" fill="#c5c8cf"/>
      <path id="Trazado_860" data-name="Trazado 860" d="M93.212,110.844s-.474.545-.21,1.008a.776.776,0,0,0,1.18,0S93.042,111.869,93.212,110.844Z" transform="translate(-70.09 -50.288)" fill="#c5c8cf"/>
      <path id="Trazado_861" data-name="Trazado 861" d="M115.682,111.852a.776.776,0,0,0,1.18,0c.263-.463-.211-1.008-.211-1.008C116.823,111.869,115.682,111.852,115.682,111.852Z" transform="translate(-65.283 -50.288)" fill="#c5c8cf"/>
      <path id="Trazado_862" data-name="Trazado 862" d="M96.845,110.391l-.247-.147-.609,1.028.247.147a.6.6,0,0,0,.609-1.028Z" transform="translate(-69.442 -50.415)" fill="#c5c8cf"/>
      <path id="Trazado_863" data-name="Trazado 863" d="M98.493,111.236a.588.588,0,0,0-.787.3.585.585,0,1,0,1.056.5A.588.588,0,0,0,98.493,111.236Z" transform="translate(-69.094 -50.217)" fill="#c5c8cf"/>
      <path id="Trazado_864" data-name="Trazado 864" d="M104.164,112.7a.588.588,0,0,0-.614.573.584.584,0,1,0,1.164.059A.584.584,0,0,0,104.164,112.7Z" transform="translate(-67.846 -49.895)" fill="#c5c8cf"/>
      <path id="Trazado_865" data-name="Trazado 865" d="M108.764,112.773l-.343.09.138.522.344-.091a.252.252,0,0,0,.194-.328A.257.257,0,0,0,108.764,112.773Z" transform="translate(-66.817 -49.883)" fill="#c5c8cf"/>
      <path id="Trazado_866" data-name="Trazado 866" d="M108.888,112.42a.219.219,0,0,0-.288-.166l-.316.084.12.457.321-.084A.224.224,0,0,0,108.888,112.42Z" transform="translate(-66.846 -49.992)" fill="#c5c8cf"/>
      <path id="Trazado_867" data-name="Trazado 867" d="M110.662,111.6a.429.429,0,0,0-.214.047l-.237.094.211.526.3-.119a.261.261,0,0,0,.151-.369A.255.255,0,0,0,110.662,111.6Z" transform="translate(-66.439 -50.128)" fill="#c5c8cf"/>
      <path id="Trazado_868" data-name="Trazado 868" d="M112.285,111.024l.084.526.423-.229-.394-.357c-.063-.059-.161-.17-.161-.17l0,0S112.269,110.941,112.285,111.024Z" transform="translate(-66.012 -50.298)" fill="#c5c8cf"/>
      <path id="Trazado_869" data-name="Trazado 869" d="M120.813,111.407l-.5-.189a1.869,1.869,0,0,1,1.094-.1l-.61-.551a4.022,4.022,0,0,0-4.546-.579,17,17,0,0,1-17.933,0,4.02,4.02,0,0,0-4.544.579l-.612.551a1.869,1.869,0,0,1,1.094.1l-.5.189c.638.252.375.722.375.722l.775-.688a28.087,28.087,0,0,1,3.411,1.707,17.63,17.63,0,0,0,8.966,2.27h0a17.623,17.623,0,0,0,8.966-2.27,28.148,28.148,0,0,1,3.412-1.707l.775.688S120.175,111.659,120.813,111.407Zm-24.065.335-.451-.266.805-1.36.451.266a.79.79,0,1,1-.805,1.36Zm1.122.632-.2-.1.748-1.393.195.105Zm.956.507a.812.812,0,0,1-.382-1.1.813.813,0,0,1,1.47.694A.81.81,0,0,1,98.825,112.882Zm2.2-.474a.555.555,0,0,0-.274-.253.257.257,0,0,0-.35.111c-.119.3.626.5.441.977a.455.455,0,0,1-.629.234.736.736,0,0,1-.412-.383l.177-.111a.621.621,0,0,0,.314.3.244.244,0,0,0,.339-.119c.124-.319-.616-.527-.441-.98a.469.469,0,0,1,.635-.226.647.647,0,0,1,.36.31Zm1.312,1.766a.574.574,0,0,1-.449-.728l.264-.988.216.058-.266.987a.4.4,0,0,0,.778.2l.264-.982.214.057-.265.988A.575.575,0,0,1,102.341,114.175Zm2.25.449-.214-.039-.514-1.139c-.042-.1-.09-.251-.09-.251h0s-.011.142-.025.231l-.184,1.013-.218-.04.281-1.561.217.039.511,1.141c.042.094.09.248.09.248h0s.01-.142.025-.229l.183-1.014.219.039Zm.6.064-.22-.025.185-1.57.22.027Zm1.1.115a.81.81,0,0,1-.769-.868.811.811,0,0,1,1.619.084A.808.808,0,0,1,106.285,114.8Zm2.163-.03-.745-.994c-.062-.085-.14-.225-.14-.225h0s.021.139.024.229l.042,1.023-.222.008-.064-1.577.219-.008.744,1c.061.082.14.222.14.222h0s-.022-.139-.025-.227l-.041-1.026.22-.01.064,1.578Zm1.472-.148-.25-1.56.219-.035.218,1.37.7-.111.031.19Zm1.1-.193-.321-1.553.218-.046.321,1.553Zm1.139-.268-.547.144-.4-1.529.535-.14a.407.407,0,0,1,.546.273.372.372,0,0,1-.1.379v0a.382.382,0,0,1,.349.3A.454.454,0,0,1,112.163,114.165Zm.795-.22-.5-1.505.874-.289.061.184-.664.219.156.471.539-.179.062.184-.539.178.16.484.7-.233.061.184Zm1.991-.728-.543-.459-.314.126.235.583-.206.082-.587-1.464.448-.179a.806.806,0,0,1,.287-.078.47.47,0,0,1,.3.8v0a.443.443,0,0,1,.07.05l.539.443Zm.779-.35-.593-1.257-.492.231-.082-.174,1.183-.558.082.174-.491.231.593,1.258Zm1.588-.821-.359-.323-.524.285.08.475-.2.109-.256-1.663.2-.111,1.257,1.119Zm.805-.48-.446.277-.837-1.343.446-.277a.791.791,0,1,1,.837,1.343Z" transform="translate(-70.039 -50.565)" fill="#c5c8cf"/>
      <path id="Trazado_870" data-name="Trazado 870" d="M113.193,110.263l-.243.151.633,1.016.243-.151a.6.6,0,0,0-.633-1.016Z" transform="translate(-65.86 -50.433)" fill="#c5c8cf"/>
    </g>
  </g>
</svg>
